 <svg viewBox="0 0 24 24" fill="none" xmlns="http://www.w3.org/2000/svg" id="fire-icon">
                <path d="M12 2C12 2 8 6 8 10C8 11.0609 8.42143 12.0783 9.17157 12.8284C9.92172 13.5786 10.9391 14 12 14C13.0609 14 14.0783 13.5786 14.8284 12.8284C15.5786 12.0783 16 11.0609 16 10C16 6 12 2 12 2Z" 
                      fill="#DC2626" opacity="0.3"/>
                <path d="M12 22C12 22 6 17 6 12C6 9.87827 6.84285 7.84344 8.34315 6.34315C9.84344 4.84285 11.8783 4 14 4C16.1217 4 18.1566 4.84285 19.6569 6.34315C21.1571 7.84344 22 9.87827 22 12C22 17 16 22 12 22Z" 
                      stroke="#DC2626" stroke-width="2" stroke-linecap="round" stroke-linejoin="round"/>
            </svg>