<svg viewBox="0 0 24 24" fill="none" xmlns="http://www.w3.org/2000/svg" id="heart-icon">
  <path d="M20.84 4.61C20.3292 4.09943 19.7228 3.69553 19.0554 3.4214C18.3879 3.14727 17.6725 3.00793 16.95 3.00793C16.2275 3.00793 15.5121 3.14727 14.8446 3.4214C14.1772 3.69553 13.5708 4.09943 13.06 4.61L12 5.67L10.94 4.61C9.9083 3.57831 8.50903 3.00794 7.05 3.00794C5.59096 3.00794 4.19169 3.57831 3.16 4.61C2.1283 5.64169 1.55793 7.04096 1.55793 8.5C1.55793 9.95903 2.1283 11.3583 3.16 12.39L4.22 13.45L12 21.23L19.78 13.45L20.84 12.39C21.3506 11.8792 21.7545 11.2728 22.0286 10.6054C22.3027 9.93789 22.4421 9.22248 22.4421 8.5C22.4421 7.77752 22.3027 7.0621 22.0286 6.39464C21.7545 5.72718 21.3506 5.12084 20.84 4.61Z"
    stroke="#DC2626" stroke-width="2" stroke-linecap="round" stroke-linejoin="round" />
</svg>